<svg width="24" height="25" viewBox="0 0 24 25" fill="none" xmlns="http://www.w3.org/2000/svg">
<path d="M21.75 21.7734H2.25C1.78587 21.7734 1.34075 21.5891 1.01256 21.2609C0.684374 20.9327 0.5 20.4876 0.5 20.0234V4.52344C0.5 3.55744 1.284 2.77344 2.25 2.77344H21.75C22.716 2.77344 23.5 3.55744 23.5 4.52344V20.0234C23.5 20.4876 23.3156 20.9327 22.9874 21.2609C22.6592 21.5891 22.2141 21.7734 21.75 21.7734ZM2.25 4.27344C2.1837 4.27344 2.12011 4.29978 2.07322 4.34666C2.02634 4.39354 2 4.45713 2 4.52344V20.0234C2 20.1614 2.112 20.2734 2.25 20.2734H5.428L14 11.2504C14.1609 11.0811 14.354 10.9457 14.5681 10.8522C14.7821 10.7587 15.0127 10.709 15.2463 10.7061C15.4798 10.7031 15.7116 10.7469 15.9279 10.8349C16.1443 10.9229 16.3408 11.0533 16.506 11.2184L22 16.7134V4.52344C22 4.45713 21.9737 4.39354 21.9268 4.34666C21.8799 4.29978 21.8163 4.27344 21.75 4.27344H2.25ZM22 20.0234V18.8334L15.445 12.2794C15.4214 12.2559 15.3933 12.2373 15.3624 12.2247C15.3315 12.2122 15.2984 12.206 15.265 12.2064C15.2317 12.2068 15.1988 12.2138 15.1682 12.227C15.1377 12.2402 15.11 12.2594 15.087 12.2834L7.497 20.2734H21.75C21.8163 20.2734 21.8799 20.2471 21.9268 20.2002C21.9737 20.1533 22 20.0897 22 20.0234ZM10.5 9.52344C10.5 10.3854 10.1576 11.212 9.5481 11.8215C8.9386 12.431 8.11195 12.7734 7.25 12.7734C6.38805 12.7734 5.5614 12.431 4.9519 11.8215C4.34241 11.212 4 10.3854 4 9.52344C4 8.66148 4.34241 7.83483 4.9519 7.22534C5.5614 6.61585 6.38805 6.27344 7.25 6.27344C8.11195 6.27344 8.9386 6.61585 9.5481 7.22534C10.1576 7.83483 10.5 8.66148 10.5 9.52344ZM9 9.52344C8.99993 9.29356 8.95459 9.06594 8.86656 8.85359C8.77853 8.64123 8.64953 8.4483 8.48694 8.28579C8.32434 8.12329 8.13133 7.99441 7.91893 7.9065C7.70652 7.81858 7.47888 7.77337 7.249 7.77344C7.01912 7.7735 6.79151 7.81885 6.57915 7.90688C6.3668 7.99491 6.17386 8.12391 6.01136 8.2865C5.84885 8.4491 5.71997 8.64211 5.63206 8.85451C5.54415 9.06692 5.49893 9.29456 5.499 9.52444C5.49913 9.9887 5.68369 10.4339 6.01206 10.7621C6.34044 11.0903 6.78574 11.2746 7.25 11.2744C7.71426 11.2743 8.15946 11.0898 8.48764 10.7614C8.81583 10.433 9.00013 9.9877 9 9.52344Z" fill="black"/>
</svg>
