<svg width="24" height="25" viewBox="0 0 24 25" fill="none" xmlns="http://www.w3.org/2000/svg">
<path d="M6.133 21.2737C4.955 21.2737 4 20.2937 4 19.0837V10.2817C4 9.61671 4.295 8.98671 4.8 8.57171L10.667 3.75371C11.0419 3.4433 11.5133 3.27344 12 3.27344C12.4867 3.27344 12.9581 3.4433 13.333 3.75371L19.199 8.57171C19.705 8.98671 20 9.61671 20 10.2817V19.0837C20 20.2937 19.045 21.2737 17.867 21.2737H6.133Z" stroke="#FF5474" stroke-width="1.5" stroke-linecap="round" stroke-linejoin="round"/>
<path d="M9.5 21.2734V15.7734C9.5 15.243 9.71071 14.7343 10.0858 14.3592C10.4609 13.9842 10.9696 13.7734 11.5 13.7734H12.5C13.0304 13.7734 13.5391 13.9842 13.9142 14.3592C14.2893 14.7343 14.5 15.243 14.5 15.7734V21.2734" stroke="#FF5474" stroke-width="1.5" stroke-linecap="round" stroke-linejoin="round"/>
</svg>
