<svg width="24" height="25" viewBox="0 0 24 25" fill="none" xmlns="http://www.w3.org/2000/svg">
<path d="M6.09 15.2734C5.70066 14.3934 5.49969 13.4417 5.5 12.4794C5.5 8.77444 8.41 5.77344 12 5.77344C15.59 5.77344 18.5 8.77544 18.5 12.4794C18.5003 13.4417 18.2993 14.3934 17.91 15.2734M12 2.27344V3.27344M22 12.2734H21M3 12.2734H2M19.07 5.20244L18.363 5.90944M5.637 5.91044L4.93 5.20344M14.517 19.5804C15.527 19.2534 15.933 18.3284 16.047 17.3984C16.081 17.1204 15.852 16.8894 15.572 16.8894H8.477C8.40862 16.8883 8.3408 16.9018 8.278 16.9289C8.21521 16.956 8.15888 16.9961 8.11275 17.0465C8.06662 17.097 8.03173 17.1567 8.0104 17.2217C7.98906 17.2867 7.98177 17.3554 7.989 17.4234C8.101 18.3514 8.383 19.0294 9.453 19.5794M14.517 19.5804L9.453 19.5794M14.517 19.5804C14.396 21.5254 13.834 22.2954 12.007 22.2734C10.053 22.3094 9.603 21.3564 9.453 19.5794" stroke="black" stroke-width="1.5" stroke-linecap="round" stroke-linejoin="round"/>
</svg>
