<svg width="24" height="25" viewBox="0 0 24 25" fill="none" xmlns="http://www.w3.org/2000/svg">
<path d="M2 12.2734C2 8.50244 2 6.61644 3.172 5.44544C4.344 4.27444 6.229 4.27344 10 4.27344H14C17.771 4.27344 19.657 4.27344 20.828 5.44544C21.999 6.61744 22 8.50244 22 12.2734V14.2734C22 18.0444 22 19.9304 20.828 21.1014C19.656 22.2724 17.771 22.2734 14 22.2734H10C6.229 22.2734 4.343 22.2734 3.172 21.1014C2.001 19.9294 2 18.0444 2 14.2734V12.2734Z" fill="white" stroke="black" stroke-width="1.5"/>
<path d="M7 4.27344V2.77344ZM17 4.27344V2.77344ZM2.5 9.27344H21.5Z" fill="white"/>
<path d="M7 4.27344V2.77344M17 4.27344V2.77344M2.5 9.27344H21.5" stroke="black" stroke-width="1.5" stroke-linecap="round"/>
<path d="M18 17.2734C18 17.5387 17.8946 17.793 17.7071 17.9805C17.5196 18.1681 17.2652 18.2734 17 18.2734C16.7348 18.2734 16.4804 18.1681 16.2929 17.9805C16.1054 17.793 16 17.5387 16 17.2734C16 17.0082 16.1054 16.7539 16.2929 16.5663C16.4804 16.3788 16.7348 16.2734 17 16.2734C17.2652 16.2734 17.5196 16.3788 17.7071 16.5663C17.8946 16.7539 18 17.0082 18 17.2734ZM18 13.2734C18 13.5387 17.8946 13.793 17.7071 13.9805C17.5196 14.1681 17.2652 14.2734 17 14.2734C16.7348 14.2734 16.4804 14.1681 16.2929 13.9805C16.1054 13.793 16 13.5387 16 13.2734C16 13.0082 16.1054 12.7539 16.2929 12.5663C16.4804 12.3788 16.7348 12.2734 17 12.2734C17.2652 12.2734 17.5196 12.3788 17.7071 12.5663C17.8946 12.7539 18 13.0082 18 13.2734ZM13 17.2734C13 17.5387 12.8946 17.793 12.7071 17.9805C12.5196 18.1681 12.2652 18.2734 12 18.2734C11.7348 18.2734 11.4804 18.1681 11.2929 17.9805C11.1054 17.793 11 17.5387 11 17.2734C11 17.0082 11.1054 16.7539 11.2929 16.5663C11.4804 16.3788 11.7348 16.2734 12 16.2734C12.2652 16.2734 12.5196 16.3788 12.7071 16.5663C12.8946 16.7539 13 17.0082 13 17.2734ZM13 13.2734C13 13.5387 12.8946 13.793 12.7071 13.9805C12.5196 14.1681 12.2652 14.2734 12 14.2734C11.7348 14.2734 11.4804 14.1681 11.2929 13.9805C11.1054 13.793 11 13.5387 11 13.2734C11 13.0082 11.1054 12.7539 11.2929 12.5663C11.4804 12.3788 11.7348 12.2734 12 12.2734C12.2652 12.2734 12.5196 12.3788 12.7071 12.5663C12.8946 12.7539 13 13.0082 13 13.2734ZM8 17.2734C8 17.5387 7.89464 17.793 7.70711 17.9805C7.51957 18.1681 7.26522 18.2734 7 18.2734C6.73478 18.2734 6.48043 18.1681 6.29289 17.9805C6.10536 17.793 6 17.5387 6 17.2734C6 17.0082 6.10536 16.7539 6.29289 16.5663C6.48043 16.3788 6.73478 16.2734 7 16.2734C7.26522 16.2734 7.51957 16.3788 7.70711 16.5663C7.89464 16.7539 8 17.0082 8 17.2734ZM8 13.2734C8 13.5387 7.89464 13.793 7.70711 13.9805C7.51957 14.1681 7.26522 14.2734 7 14.2734C6.73478 14.2734 6.48043 14.1681 6.29289 13.9805C6.10536 13.793 6 13.5387 6 13.2734C6 13.0082 6.10536 12.7539 6.29289 12.5663C6.48043 12.3788 6.73478 12.2734 7 12.2734C7.26522 12.2734 7.51957 12.3788 7.70711 12.5663C7.89464 12.7539 8 13.0082 8 13.2734Z" fill="white"/>
</svg>
