<svg width="24" height="25" viewBox="0 0 24 25" fill="none" xmlns="http://www.w3.org/2000/svg">
<path d="M12 15.2734C13.6569 15.2734 15 13.9303 15 12.2734C15 10.6166 13.6569 9.27344 12 9.27344C10.3431 9.27344 9 10.6166 9 12.2734C9 13.9303 10.3431 15.2734 12 15.2734Z" stroke="black" stroke-width="1.5"/>
<path d="M13.7635 2.42544C13.3965 2.27344 12.9305 2.27344 11.9985 2.27344C11.0665 2.27344 10.6005 2.27344 10.2335 2.42544C9.99068 2.52595 9.77005 2.67333 9.58422 2.85916C9.39839 3.04499 9.25101 3.26562 9.1505 3.50844C9.0585 3.73144 9.0215 3.99244 9.0075 4.37144C9.00099 4.64537 8.9251 4.91317 8.78694 5.14979C8.64878 5.38642 8.45285 5.58413 8.2175 5.72444C7.9783 5.85821 7.70908 5.92911 7.43503 5.93051C7.16097 5.93191 6.89104 5.86376 6.6505 5.73244C6.3145 5.55444 6.0715 5.45644 5.8305 5.42444C5.30482 5.35531 4.7732 5.49774 4.3525 5.82044C4.0385 6.06344 3.8045 6.46644 3.3385 7.27344C2.8725 8.08044 2.6385 8.48344 2.5875 8.87844C2.55313 9.13889 2.57042 9.40356 2.63836 9.65733C2.70631 9.9111 2.82359 10.149 2.9835 10.3574C3.1315 10.5494 3.3385 10.7104 3.6595 10.9124C4.1325 11.2094 4.4365 11.7154 4.4365 12.2734C4.4365 12.8314 4.1325 13.3374 3.6595 13.6334C3.3385 13.8364 3.1305 13.9974 2.9835 14.1894C2.82359 14.3979 2.70631 14.6358 2.63836 14.8895C2.57042 15.1433 2.55313 15.408 2.5875 15.6684C2.6395 16.0624 2.8725 16.4664 3.3375 17.2734C3.8045 18.0804 4.0375 18.4834 4.3525 18.7264C4.56093 18.8863 4.79883 19.0036 5.0526 19.0716C5.30637 19.1395 5.57105 19.1568 5.8315 19.1224C6.0715 19.0904 6.3145 18.9924 6.6505 18.8144C6.89104 18.6831 7.16097 18.615 7.43503 18.6164C7.70908 18.6178 7.9783 18.6887 8.2175 18.8224C8.7005 19.1024 8.9875 19.6174 9.0075 20.1754C9.0215 20.5554 9.0575 20.8154 9.1505 21.0384C9.25101 21.2813 9.39839 21.5019 9.58422 21.6877C9.77005 21.8735 9.99068 22.0209 10.2335 22.1214C10.6005 22.2734 11.0665 22.2734 11.9985 22.2734C12.9305 22.2734 13.3965 22.2734 13.7635 22.1214C14.0063 22.0209 14.2269 21.8735 14.4128 21.6877C14.5986 21.5019 14.746 21.2813 14.8465 21.0384C14.9385 20.8154 14.9755 20.5554 14.9895 20.1754C15.0095 19.6174 15.2965 19.1014 15.7795 18.8224C16.0187 18.6887 16.2879 18.6178 16.562 18.6164C16.836 18.615 17.106 18.6831 17.3465 18.8144C17.6825 18.9924 17.9255 19.0904 18.1655 19.1224C18.4259 19.1568 18.6906 19.1395 18.9444 19.0716C19.1982 19.0036 19.4361 18.8863 19.6445 18.7264C19.9595 18.4844 20.1925 18.0804 20.6585 17.2734C21.1245 16.4664 21.3585 16.0634 21.4095 15.6684C21.4439 15.408 21.4266 15.1433 21.3586 14.8895C21.2907 14.6358 21.1734 14.3979 21.0135 14.1894C20.8655 13.9974 20.6585 13.8364 20.3375 13.6344C20.1034 13.4918 19.9094 13.2922 19.7735 13.0541C19.6376 12.8161 19.5643 12.5475 19.5605 12.2734C19.5605 11.7154 19.8645 11.2094 20.3375 10.9134C20.6585 10.7104 20.8665 10.5494 21.0135 10.3574C21.1734 10.149 21.2907 9.9111 21.3586 9.65733C21.4266 9.40356 21.4439 9.13889 21.4095 8.87844C21.3575 8.48444 21.1245 8.08044 20.6595 7.27344C20.1925 6.46644 19.9595 6.06344 19.6445 5.82044C19.4361 5.66053 19.1982 5.54325 18.9444 5.4753C18.6906 5.40736 18.4259 5.39007 18.1655 5.42444C17.9255 5.45644 17.6825 5.55444 17.3455 5.73244C17.1051 5.86358 16.8353 5.93163 16.5615 5.93023C16.2876 5.92883 16.0186 5.85803 15.7795 5.72444C15.5441 5.58413 15.3482 5.38642 15.2101 5.14979C15.0719 4.91317 14.996 4.64537 14.9895 4.37144C14.9755 3.99144 14.9395 3.73144 14.8465 3.50844C14.746 3.26562 14.5986 3.04499 14.4128 2.85916C14.2269 2.67333 14.0063 2.52595 13.7635 2.42544Z" stroke="black" stroke-width="1.5"/>
</svg>
